General

Format                           : AVI
Format/Info                      : Audio Video Interleave
File size                        : 561 MiB
Duration                         : 1h 47mn
Overall bit rate                 : 729 Kbps

Video
ID                               : 0
Format                           : MPEG-4 Visual
Format profile                   : Advanced Simple@L5
Format settings, BVOP            : Yes
Format settings, QPel            : No
Format settings, GMC             : No warppoints
Format settings, Matrix          : Default (H.263)
Muxing mode                      : Packed bitstream
Codec ID                         : XVID
Codec ID/Hint                    : XviD
Duration                         : 1h 47mn
Bit rate                         : 527 Kbps
Width                            : 720 pixels
Height                           : 576 pixels
Display aspect ratio             : 5:4
Frame rate                       : 25.000 fps
Standard                         : PAL
Color space                      : YUV
Chroma subsampling               : 4:2:0
Bit depth                        : 8 bits
Scan type                        : Progressive
Compression mode                 : Lossy
Bits/(Pixel*Frame)               : 0.051
Stream size                      : 406 MiB (72%)
Writing library                  : XviD 1.1.2 (UTC 2006-11-01)

Audio
ID                               : 1
Format                           : MPEG Audio
Format version                   : Version 1
Format profile                   : Layer 3
Codec ID                         : 55
Codec ID/Hint                    : MP3
Duration                         : 1h 47mn
Bit rate mode                    : Constant
Bit rate                         : 192 Kbps
Channel(s)                       : 2 channels
Sampling rate                    : 44.1 KHz
Compression mode                 : Lossy
Video delay                      : 26ms
Stream size                      : 148 MiB (26%)
Alignment                        : Split accross interleaves
Interleave, duration             : 40 ms (1.00 video frame)
Title                            : Audio Stream

Moviemeter: http://www.moviemeter.nl/film/3140


Verenigde Staten
Thriller
108 minuten

geregisseerd door Jonathan Kaplan
met Matthew Broderick, Helen Hunt en William Sadler

De dwarse piloot Jimmy Garrett wordt te werk gesteld bij Project X, een ultrageheim militair project waarbij chimpansees worden blootgesteld aan (dodelijke) radioactieve straling. Chimpansee Mingus heeft nog eerder door wat er aan de hand is dan zijn 'baasje'. Met angstige geluiden maakt het beest duidelijk dat het niet pluis is in de experimenteerruimte.

IMdB: http://www.imdb.com/title/tt0093793/


